<?xml version="1.0" standalone="no"?>
<!DOCTYPE svg PUBLIC "-//W3C//DTD SVG 20010904//EN"
 "http://www.w3.org/TR/2001/REC-SVG-20010904/DTD/svg10.dtd">
<svg version="1.0" xmlns="http://www.w3.org/2000/svg"
 width="1024.000000pt" height="512.000000pt" viewBox="0 0 1024.000000 512.000000"
 preserveAspectRatio="xMidYMid meet">

<g transform="translate(0.000000,512.000000) scale(0.100000,-0.100000)"
fill="#000000" stroke="none">
<path d="M8205 3510 c-11 -4 -33 -22 -50 -40 l-30 -31 -3 -330 c-1 -181 -5
-329 -8 -329 -3 0 -38 16 -78 35 -252 121 -512 79 -707 -115 -124 -124 -179
-260 -179 -445 0 -185 55 -321 179 -445 116 -115 228 -161 426 -176 109 -7
195 10 303 62 41 20 75 34 76 32 1 -2 10 -16 20 -31 57 -92 199 -89 256 5 19
32 20 52 20 866 0 929 4 878 -69 928 -37 25 -113 32 -156 14z m-290 -969 c238
-117 240 -453 4 -581 -59 -32 -71 -35 -149 -35 -73 0 -93 4 -141 28 -63 30
-125 92 -161 159 -19 36 -23 58 -23 138 0 83 3 101 27 145 28 54 96 123 147
149 87 45 200 44 296 -3z"/>
<path d="M552 3480 c-18 -11 -41 -34 -52 -52 -19 -32 -20 -52 -20 -873 0 -826
0 -841 20 -873 42 -69 153 -89 215 -40 53 42 55 53 55 376 0 329 5 364 60 440
113 157 337 140 428 -32 l27 -51 5 -340 c5 -313 7 -342 24 -368 57 -85 207
-74 250 17 14 29 16 80 16 348 0 183 -5 339 -11 374 -6 32 -28 97 -50 142 -47
102 -152 213 -239 255 -131 63 -291 74 -415 28 -33 -12 -68 -24 -77 -28 -17
-5 -18 14 -18 298 0 280 -2 306 -19 335 -37 61 -136 83 -199 44z"/>
<path d="M4074 2855 c-16 -9 -97 -86 -179 -173 -81 -86 -207 -218 -279 -292
-273 -280 -513 -536 -524 -557 -18 -34 -14 -104 8 -140 36 -59 108 -90 171
-73 36 10 90 61 342 325 l66 70 185 -185 185 -184 63 -4 c53 -3 68 0 98 20 61
41 86 124 59 195 -6 15 -92 110 -191 210 l-181 182 184 191 c101 105 189 201
196 213 18 33 16 108 -5 139 -45 68 -133 96 -198 63z"/>
<path d="M4545 2856 c-41 -18 -83 -69 -90 -109 -3 -18 -5 -256 -3 -529 3 -484
4 -497 24 -524 35 -47 70 -67 126 -72 65 -5 119 15 145 54 16 25 19 59 23 329
l5 300 29 62 c54 118 169 193 274 179 57 -8 148 -49 185 -84 16 -15 41 -49 55
-77 l27 -50 5 -315 c4 -282 7 -319 23 -343 29 -44 75 -67 135 -67 46 0 57 4
90 34 l37 34 3 319 c3 354 -3 410 -59 523 -41 81 -164 211 -248 260 -91 53
-165 73 -277 72 -99 0 -177 -18 -256 -57 l-47 -24 -27 36 c-44 58 -115 77
-179 49z"/>
<path d="M6265 2851 c-124 -35 -267 -126 -336 -214 -50 -62 -103 -169 -124
-252 -19 -75 -19 -221 0 -303 35 -147 144 -295 275 -372 154 -90 382 -120 539
-69 120 39 267 146 320 233 155 256 146 545 -25 767 -77 101 -216 188 -343
215 -90 19 -232 17 -306 -5z m272 -303 c121 -45 205 -170 205 -306 0 -50 -6
-75 -31 -126 -36 -74 -82 -118 -161 -155 -150 -69 -342 3 -417 157 -23 48 -28
70 -28 137 0 67 5 89 28 137 73 148 247 215 404 156z"/>
<path d="M2299 2849 c-155 -16 -275 -75 -382 -189 -113 -119 -167 -260 -167
-435 0 -114 16 -187 62 -284 42 -89 167 -215 258 -258 249 -120 552 -86 738
83 48 43 62 62 67 94 26 152 -147 222 -277 113 -73 -61 -121 -78 -223 -78 -82
0 -97 3 -157 33 -70 34 -124 87 -158 153 -11 20 -16 39 -13 43 4 3 203 6 444
6 l438 0 7 56 c14 113 -10 240 -66 359 -68 141 -173 230 -330 279 -95 29 -146
35 -241 25z m178 -319 c42 -18 143 -104 143 -121 0 -5 -121 -9 -270 -9 -150 0
-270 4 -270 9 0 15 76 79 122 102 95 50 191 56 275 19z"/>
<path d="M9115 2850 c-129 -14 -206 -44 -323 -127 -147 -105 -232 -283 -232
-490 0 -359 264 -614 637 -613 153 1 280 43 402 135 72 55 96 98 88 158 -11
79 -58 118 -140 118 -57 0 -121 -24 -147 -56 -56 -67 -234 -96 -342 -55 -69
26 -157 102 -187 163 l-21 42 448 5 447 5 3 95 c6 183 -51 343 -161 453 -122
123 -297 185 -472 167z m181 -326 c29 -13 71 -46 95 -72 l44 -47 -269 -3
c-148 -1 -271 0 -274 3 -3 3 9 20 27 39 67 69 200 121 286 110 22 -2 63 -16
91 -30z"/>
<path d="M3160 2822 c-51 -25 -80 -74 -80 -136 1 -28 6 -60 13 -72 23 -39 107
-129 210 -226 l104 -97 108 115 108 116 -144 144 c-79 79 -158 151 -175 159
-42 20 -101 19 -144 -3z"/>
</g>
</svg>
